<?xml version="1.0" encoding="utf-8"?>
<!-- Generator: Adobe Illustrator 16.0.4, SVG Export Plug-In . SVG Version: 6.00 Build 0)  -->
<!DOCTYPE svg PUBLIC "-//W3C//DTD SVG 1.1//EN" "http://www.w3.org/Graphics/SVG/1.1/DTD/svg11.dtd">
<svg version="1.1" id="Layer_1" xmlns="http://www.w3.org/2000/svg" xmlns:xlink="http://www.w3.org/1999/xlink" x="0px" y="0px"
	 width="24px" height="24px" viewBox="0 0 24 24" enable-background="new 0 0 24 24" xml:space="preserve">
<polygon fill="#E01D24" points="16.3,0 15.4,0 6.7,0 6,0 6,20 6.7,20 21.7,20 22,20 22,6.6 "/>
<polygon fill="#FFFFFF" points="7,19 7,1 15.8,1 21,6.9 21,19 "/>
<polygon opacity="0.3" fill="#DE1D24" points="7,19 7,1 15.8,1 21,6.9 21,19 "/>
<polygon fill="#FFFFFF" points="8,18 8,2 15.4,2 20,7.3 20,18 "/>
<polygon opacity="0.56" fill="#ED1C24" points="8,18 8,2 15.4,2 20,7.3 20,18 "/>
<path fill="#DE1D24" d="M14.8,7.5c0,0,5.2-1.3,7.2,0.3c0-0.1,0-1.2,0-1.2L16.2,0c0,0-1.5,0-1.601,0C16.8,3,14.8,7.5,14.8,7.5z"/>
<path fill="#FFFFFF" d="M16.3,6.2C16.6,5,16.8,3.3,16.4,1.8l4,4.4C20,6.1,19.4,6,18.8,6C17.9,6,17,6.1,16.3,6.2z"/>
<path opacity="0.3" fill="#DE1D24" d="M16.3,6.2C16.6,5,16.8,3.3,16.4,1.8l4,4.4C20,6.1,19.4,6,18.8,6C17.9,6,17,6.1,16.3,6.2z"/>
<linearGradient id="SVGID_1_" gradientUnits="userSpaceOnUse" x1="3.4531" y1="-12.168" x2="3.4531" y2="-23.8863" gradientTransform="matrix(1 0 0 -1 8.5 0)">
	<stop  offset="0" style="stop-color:#DDA976"/>
	<stop  offset="1" style="stop-color:#9F6B37"/>
</linearGradient>
<path fill="url(#SVGID_1_)" d="M10,18.9c-0.3-2.2,9.4,0.5,9.3-1.4c0-0.8-8.4-3.4-11.4-4.1c-0.9-0.2-6.5-1.2-6.5-1.2
	c-0.2,0.1-1.3,3.3-1.4,5.2c0.5,0.3,7.3,6.699,10,6.5c2.7-0.2,14.2-3.601,13.9-4.7C23.3,17.1,10.3,21.3,10,18.9z"/>
<linearGradient id="SVGID_2_" gradientUnits="userSpaceOnUse" x1="2.9517" y1="-13.2817" x2="2.9517" y2="-22.9336" gradientTransform="matrix(1 0 0 -1 8.5 0)">
	<stop  offset="0" style="stop-color:#FFDDAA"/>
	<stop  offset="1" style="stop-color:#E3B17E"/>
</linearGradient>
<path fill="url(#SVGID_2_)" d="M1.7,17.4C1.4,17.2,1.2,17,1,16.9C1.1,15.7,1.6,14.1,1.9,13.3c1.8,0.3,5.1,0.9,5.7,1
	c2.6,0.601,9.4,2.3,9.7,3C17.8,18.4,9,15.4,9.2,19c0.2,3.5,12.399-0.6,12.7,0.5C22.1,20.2,11.8,23.1,9.9,23
	C7.9,22.8,3.3,18.8,1.7,17.4z"/>
<linearGradient id="SVGID_3_" gradientUnits="userSpaceOnUse" x1="-0.7993" y1="-14.4155" x2="-0.7993" y2="-21.935" gradientTransform="matrix(1 0 0 -1 8.5 0)">
	<stop  offset="0" style="stop-color:#F1C592"/>
	<stop  offset="1" style="stop-color:#E1AF7C"/>
</linearGradient>
<path fill="url(#SVGID_3_)" d="M10.1,21.9c-0.8-0.101-2.8-1-7.6-5.2l-0.3-0.3C2.3,15.7,2.5,15,2.7,14.3c2.1,0.4,4.3,0.8,4.7,0.9
	c1.5,0.399,2.7,0.7,3.8,0.899c-1,0.101-1.8,0.4-2.3,1C8.6,17.4,8.2,18,8.3,19c0.1,1.1,0.8,2.4,4,2.4c0.3,0,0.601,0,0.9,0
	C11.8,21.7,10.7,21.9,10.1,21.9L10.1,21.9z"/>
</svg>
